<svg width="2970" height="1770" viewBox="0 0 2970 1770" fill="none" xmlns="http://www.w3.org/2000/svg">
<path d="M4.69994 2.1001C3.19994 3.20007 1.59994 5.80005 0.999944 7.80005C0.199944 10.4 -5.64307e-05 228.7 0.199944 746.7L0.499944 1482L3.79994 1485.2L6.99994 1488.5L284.6 1488.8C533.6 1489 562.5 1488.9 565.4 1487.5C572.1 1484.3 573.4 1475.9 568.1 1470.6L565 1467.5L293.5 1467.2L21.9999 1467V744V21.0001H1485H2948V744V1467L2676.5 1467.2L2405 1467.5L2401.9 1470.6C2396.6 1475.9 2397.9 1484.3 2404.6 1487.5C2407.5 1488.9 2436.4 1489 2685.4 1488.8L2963 1488.5L2966.2 1485.2L2969.5 1482L2969.8 746.7C2970 228.7 2969.8 10.4 2969 7.80005C2968.4 5.80005 2966.8 3.20007 2965.3 2.1001L2962.7 0.00012207H1485H7.29994L4.69994 2.1001Z" fill="white"/>
<path d="M2834.5 53.4C2812.8 58.4 2795.4 72.1 2787.8 90.1C2784.6 98 2784.6 116 2787.9 124.2C2794.7 141.4 2813.3 156 2834.4 160.5C2846.2 163.1 2864.8 162.2 2875.5 158.6C2894.7 152 2909.5 138.4 2915 121.9C2916.8 116.5 2917.1 113.8 2916.8 104.9C2916.5 95 2916.2 93.9 2912.6 86.5C2905.6 72.3 2891.6 60.9 2874.5 55.3C2864.6 52.1 2844.4 51.2 2834.5 53.4ZM2868.4 61C2884.7 65.1 2898.1 75.4 2904.8 88.8C2908.4 96.2 2908.5 96.7 2908.5 107.5C2908.5 117.6 2908.2 119 2905.6 124.5C2899.3 137.4 2883.1 149.9 2867.8 153.5C2859.5 155.4 2842.1 155.4 2834.5 153.5C2818.1 149.3 2803.1 137.7 2796.8 124.4C2793.7 118 2793.5 116.8 2793.6 107.5C2793.6 96.1 2795.6 89.9 2801.5 81.8C2808.4 72.4 2822.2 63.6 2834.6 60.6C2843.5 58.4 2859.2 58.6 2868.4 61Z" fill="white"/>
<path d="M2825 106.4V142H2831H2837V127V112H2841.8C2850.8 112 2855.5 116.6 2865.3 134.9L2869 142H2876.1C2884.5 142 2884.6 143.1 2875.4 127.9C2871.7 121.7 2867.1 115.5 2864.5 113.2L2860 109.2L2863.3 108.6C2869 107.5 2875.9 102.4 2878 97.7C2881.3 90.5 2880.3 85 2874.7 79.2C2869 73.3 2862.8 71.8 2842.8 71.2L2825 70.8V106.4ZM2857.5 81C2865.4 82.8 2869 90.2 2865.5 97C2863.1 101.6 2859.1 103 2847.4 103.7L2837 104.3V92.2V80H2845.3C2849.8 80 2855.3 80.5 2857.5 81Z" fill="white"/>
<path d="M753.4 94.1C643.2 99.1 535.2 134.4 443 195.5C303.1 288.3 206.6 434 176.5 598C169.6 636 166.7 668.2 166.7 708.5C166.7 739.6 167.8 758.5 171.1 785C192.1 952.3 279.7 1102.1 415.7 1203.7C507.7 1272.3 614.3 1312.4 734 1323.2C751.6 1324.8 812.6 1324.8 830 1323.2C938.1 1313.3 1030.7 1281.7 1118.3 1224.7C1126.8 1219.2 1132.7 1216 1133.8 1216.3C1134.7 1216.5 1206.6 1245 1293.5 1279.5C1380.4 1314 1452.4 1342.6 1453.6 1343C1455.4 1343.7 1464.3 1334.1 1527.6 1263.2C1567.1 1218.9 1599.6 1182.2 1599.8 1181.6C1599.9 1180.9 1533.1 1161.6 1438.8 1135C1350.1 1110 1275.4 1089 1272.8 1088.2L1268.1 1086.9L1277.2 1074.7C1369.1 951.5 1411.3 794.5 1393.9 640.5C1374.9 472 1288.1 320.3 1151.9 217.3C1062.7 149.8 955.4 107.8 844 96.6C812.5 93.4 785.1 92.6 753.4 94.1ZM827 310.4C972.2 327.3 1095.7 420.1 1152.4 555C1166.6 588.6 1176.3 625.9 1181 665C1182.8 679.7 1183.4 724.4 1182.1 740.5C1176.9 803.7 1158.6 860.7 1126 915.4C1104 952.4 1071.1 990.9 1038.8 1017.3L1034.4 1020.9L896.7 982.1L759 943.2L752.8 938.3C749.3 935.6 704.3 899.9 652.7 859.1C601 818.3 558.3 784.7 557.6 784.4C556.6 784 499 844.5 498.2 846.9C498 847.5 648.9 1007.9 669.4 1028.7L674.5 1034L762 1068.6C810.1 1087.7 849.9 1103.6 850.3 1104C851.2 1104.8 832.4 1107.5 815 1109C800.1 1110.3 763.8 1110.3 748.5 1109C616.9 1097.7 499.2 1022.4 433.5 907.6C406.7 860.8 390.3 810.4 383.3 754C380.8 733.5 380.8 684.5 383.3 664C393 585.5 421.4 518.1 470.9 456.3C481.4 443.2 505.9 417.9 519.5 406.1C585.1 349.4 664.6 316.2 752 309C767.2 307.8 811.2 308.6 827 310.4Z" fill="white"/>
<path d="M749 487.6C709.7 492.2 679.5 502.2 650.3 520.3C604.1 549 569.1 595.9 555 648.4C548.7 671.6 545.6 702.8 547.7 722.5C548.5 729.4 548.6 727.8 548.7 711.5C548.8 682.2 553.1 657.8 562.5 633.5C591.8 557.7 656.9 505.7 736.5 494.4C750.9 492.4 778.3 492.2 792 493.9C829.9 498.8 865.5 513.3 896.7 536.6C906.7 544.1 925.4 562.2 933.7 572.4C957.2 601.4 972.4 634.9 979.1 672.6C981.1 683.7 981.4 688.9 981.4 709C981.4 729 981.1 734.4 979.2 745.1C969 802.3 938.7 851 892 885.2C871.4 900.3 847.3 911.8 820 919.6C815.3 920.9 813.2 921.8 815.4 921.4C817.5 921.1 823.1 919.8 827.8 918.4C898.6 897.9 953.3 845.4 976 776C984 751.8 987 733.1 987 707.8C987 608.9 922.3 522.9 827.3 495.6C808.1 490.1 793.1 487.9 771.5 487.5C761.1 487.3 750.9 487.4 749 487.6Z" fill="white"/>
<path d="M747.6 579.6C737.2 581.5 721.1 586.9 711.8 591.6C687.9 603.6 666.3 625.4 654.1 649.8C649.6 658.7 644.4 674.9 642.5 685.4C640.6 696.7 640.6 717.2 642.5 728.4C656.4 808.2 737.5 855.8 813.7 828.9C836 821 856.6 806.3 871.1 788C906.6 742.9 909.1 682.5 877.5 634.9C859.9 608.6 832.5 589.4 801 581.4C792.1 579.2 787.8 578.7 773 578.4C760.3 578.2 753.3 578.5 747.6 579.6ZM780.4 692C791 699.3 790.5 716.5 779.5 722.7C774.8 725.4 766.4 725.8 762.1 723.6C748.8 716.7 748.8 698.1 762 690.8C766.9 688.1 775.5 688.7 780.4 692Z" fill="white"/>
<path d="M549.1 734.6C549.1 735.7 549.4 736 549.7 735.2C550 734.5 549.9 733.6 549.6 733.3C549.3 732.9 549 733.5 549.1 734.6Z" fill="white"/>
<path d="M807.8 922.7C808.4 922.9 809.6 922.9 810.3 922.7C810.9 922.4 810.4 922.2 809 922.2C807.6 922.2 807.1 922.4 807.8 922.7Z" fill="white"/>
<path d="M2183.8 94.1C2043.6 100.8 1910.1 155.5 1805.5 249.1C1789.9 263.1 1761.8 291.5 1749.4 306C1689 376.3 1646.3 456.2 1622 545C1591.7 655.5 1593.7 776.5 1627.6 885.8C1694.4 1101 1873.9 1262.9 2094 1306.4C2155.6 1318.6 2221.1 1321.2 2283.4 1313.9C2494.1 1289.4 2678 1156.7 2767.8 964.3C2774.1 950.8 2786.7 920.2 2788.5 914.2L2789.1 912H2543.6C2376.5 912 2298 912.3 2298 913C2298 915.9 2311.2 939.3 2321.1 954.1C2344.4 988.9 2378.8 1021.1 2414.3 1041.3L2422.1 1045.7L2414.8 1050.1C2376.5 1072.8 2329.6 1090.3 2285 1098.4C2259 1103.1 2243.6 1104.4 2213 1104.4C2182.3 1104.4 2166.6 1103.1 2141 1098.4C1987.5 1070.3 1863.6 954.1 1825.6 802.4C1816.8 767.6 1814.5 746.9 1814.5 705C1814.6 670.1 1815.3 661 1820.1 634C1841.8 511.3 1921.6 401.6 2029.1 346.5C2090 315.3 2150 302.9 2220 306.9C2293.6 311.1 2315.6 316.4 2382.4 345.6C2393.1 350.3 2401.8 353.6 2402.4 353.1C2428.5 333.5 2579 216.6 2579 216C2579 215 2539.8 188.6 2518.5 175.3C2455.3 136 2407.8 116 2350 104.6C2319.6 98.5 2290.9 95.6 2248 94C2218.3 92.9 2208 92.9 2183.8 94.1Z" fill="white"/>
<path d="M2236.2 763.5C2224.1 767.3 2216.8 777.2 2216.8 790C2216.7 800.8 2221.7 809.3 2231.2 814.6L2236.5 817.5L2543.5 817.8C2887.4 818 2856 818.7 2864.8 810.7C2871.7 804.3 2873.5 800 2873.5 790C2873.5 782.5 2873.2 780.9 2870.8 776.8C2869.2 774.3 2866.1 770.5 2863.8 768.6C2855.5 761.4 2882.2 762 2545.1 762.1C2292.3 762.1 2239.8 762.4 2236.2 763.5Z" fill="white"/>
<path d="M2241.3 838.2C2242.6 852.2 2249 865.7 2259.3 876C2266.4 883.3 2274 888 2284.5 891.7L2292.5 894.5L2538.5 894.8C2717.6 895 2786.7 894.8 2792.5 894C2807.2 891.9 2818.9 886 2829 875.7C2839.1 865.4 2845.4 852.1 2846.7 838.2L2847.3 832H2544H2240.7L2241.3 838.2Z" fill="white"/>
<path d="M2107 1372.5C2100.5 1374.4 2098 1376.4 2099.8 1378.2C2101.9 1380.3 2101.1 1384.5 2096.6 1393.6C2090.8 1405.5 2081.8 1420.6 2063.2 1449.5C2026 1507.2 2021 1515.1 2014.9 1525C2006.7 1538.4 1984.1 1568.3 1971.9 1581.9C1961.8 1593.2 1949.3 1603.9 1940.8 1608.5C1933.6 1612.5 1924.7 1612.7 1918 1609C1905.5 1602.1 1904.7 1580.3 1915.9 1557.3C1922.9 1543.1 1943 1516.7 1957.1 1503.4C1974.6 1487 1993 1478.5 2000.6 1483.5L2003.2 1485.2L1999.6 1487.6C1995.3 1490.6 1994.1 1494.1 1996.4 1497.5C2001.3 1504.9 2016 1505.7 2022.6 1498.9C2024.9 1496.5 2025.4 1495.1 2025.4 1491.2C2025.4 1484.9 2022.7 1480.4 2016.6 1476.3C1997.6 1463.4 1954.8 1466.6 1922.6 1483.3C1900.8 1494.6 1882.8 1511.5 1866.5 1536C1861 1544.3 1855.4 1550.7 1839.5 1566.6C1804.3 1601.8 1783.6 1615.5 1774.5 1609.6C1771.3 1607.5 1771.3 1605.2 1775 1598C1778.3 1591.4 1786.6 1580.3 1805 1558C1825.9 1532.6 1836.5 1516.4 1840.9 1503.3C1843.6 1495.2 1843.5 1490.7 1840.6 1484.3C1835.9 1474.4 1825.6 1469.7 1808.5 1469.6C1799.3 1469.5 1797.7 1469.8 1788.8 1473.2C1783.4 1475.3 1775.7 1477.5 1771.8 1478.1C1764 1479.3 1747.4 1478.8 1745.9 1477.3C1745.4 1476.8 1745.4 1475 1746 1473C1747.4 1468.2 1748.4 1453.8 1747.6 1450.6C1746.7 1447 1741.4 1441.2 1736.6 1438.8C1730.9 1435.8 1718.3 1435.2 1710.5 1437.5C1698.2 1441 1690.4 1452.9 1693.2 1463.9C1694.8 1470.2 1703.6 1479 1712.4 1483.1C1716.1 1484.8 1719 1486.7 1719 1487.4C1719 1489.9 1691.6 1533.3 1687.9 1536.7C1684.2 1540.1 1673.6 1544.9 1665.3 1547C1659.3 1548.6 1641.1 1551 1635.3 1551C1634.6 1551 1635 1548.6 1636.6 1544.2C1640.7 1532.7 1639.5 1524.7 1633.2 1520.8C1630 1518.8 1628.2 1518.5 1619 1518.5C1610.1 1518.5 1607.9 1518.8 1604.3 1520.7C1595.6 1525.4 1590.8 1535 1593.1 1543.3C1594.4 1548.3 1601 1555.1 1605.9 1556.6L1609.2 1557.5L1602.4 1566C1598.7 1570.7 1590.2 1579.9 1583.6 1586.6C1560.9 1609.2 1547.6 1615 1534 1608C1530.7 1606.3 1529.3 1604.7 1527.3 1600.3C1518.7 1581.5 1534.8 1544.1 1565 1512.7C1576.2 1501 1592.3 1488.2 1600.5 1484.4C1606.5 1481.6 1614.4 1481.2 1617.9 1483.6L1620.2 1485.2L1616.6 1488.2C1613.8 1490.5 1613 1491.9 1613 1494.5C1613 1498.8 1616.2 1501.5 1623.3 1503C1630.4 1504.6 1635.8 1503.1 1639.9 1498.5C1643.5 1494.3 1643.7 1492.1 1640.9 1486C1634.8 1472.5 1622.2 1467.2 1598.2 1468.3C1552 1470.3 1512.3 1493.1 1484.6 1533.5C1469.1 1556.2 1433.2 1586.4 1405.5 1600C1388.2 1608.5 1381.4 1610.3 1367.3 1610.4C1353.2 1610.5 1351.1 1609.6 1347.1 1601.6C1345.2 1597.9 1344.7 1595.3 1344.8 1589.2C1344.8 1568.8 1354.7 1548.7 1378.9 1519.9C1399.2 1495.6 1420.3 1480.9 1432.8 1482.3C1439.3 1483 1439.9 1484.3 1435.6 1488.3C1431.3 1492.4 1431 1495.7 1434.5 1499.3C1440.5 1505.2 1454.3 1504.9 1459.5 1498.8C1463.2 1494.4 1463 1486.7 1459.2 1481.4C1449.9 1468.7 1421.1 1464.8 1389.5 1472.2C1356.1 1480 1326.9 1501.1 1303.5 1534.5C1297.1 1543.7 1279.1 1562.1 1266.4 1572.6C1247.1 1588.5 1224.9 1601.6 1207 1607.6C1199.5 1610.2 1197.1 1610.5 1186.3 1610.5C1172.3 1610.5 1170.4 1609.7 1166 1601.9C1162.6 1595.8 1162.7 1582.9 1166.2 1572L1168.6 1564.6L1183 1560.9C1207.8 1554.6 1226.1 1546.8 1244 1534.9C1255 1527.6 1267.2 1515.9 1272.3 1508C1289 1481.6 1273.3 1465.9 1233.3 1469.1C1187.7 1472.7 1150.2 1495 1124.3 1534C1101.3 1568.5 1100.7 1597.7 1122.5 1614.2C1132.4 1621.7 1152 1627 1169.9 1627C1202.7 1627 1238.7 1612.1 1273.8 1584.1C1279.1 1579.8 1284.1 1575.6 1284.9 1574.7C1287.2 1571.9 1287.5 1572.7 1287.2 1580C1286.3 1598.7 1297.3 1613.9 1316.7 1620.9C1345.3 1631.3 1377.4 1628.1 1411.5 1611.5C1427.9 1603.5 1447.6 1590 1465.5 1574.7L1469.5 1571.3V1582.4C1469.5 1593 1469.7 1593.9 1472.8 1600.2C1478.8 1612.3 1491.2 1621.4 1507.5 1625.6C1517.6 1628.1 1536 1627.9 1546.3 1625.2C1573.2 1617.9 1602.3 1595.7 1623.7 1565.9L1627 1561.3L1638 1560.6C1668.1 1558.7 1692.1 1551.2 1704.6 1539.7C1707.6 1537 1710 1534.4 1710 1533.9C1710 1533.5 1712 1530.2 1714.5 1526.6C1717 1523 1723.1 1513.7 1728 1505.9L1737 1491.6L1757.8 1491.5C1769.8 1491.4 1779.9 1490.9 1781.8 1490.2C1784.3 1489.4 1785 1489.4 1785 1490.5C1785 1491.2 1777.9 1502.5 1769.1 1515.7C1743.8 1553.6 1735.3 1570 1732 1586.8C1728.2 1605.7 1736.1 1621.1 1751.8 1625.6C1758.8 1627.7 1775.3 1627.1 1782.5 1624.6C1800.3 1618.4 1821.2 1604.3 1841.6 1584.8L1849.7 1577L1850.3 1584.5C1850.9 1593.2 1854.6 1602.2 1860.1 1608.5C1873.1 1623.3 1907.3 1631.2 1931.5 1625C1947 1621.1 1961.2 1612.8 1976.3 1599L1983 1592.8V1596.6C1983 1598.7 1983.8 1603.1 1984.7 1606.4C1987 1614.8 1995 1623.1 2002.9 1625.4C2009.9 1627.4 2023.4 1627.5 2031.4 1625.4C2059.6 1618.2 2102.6 1582.2 2137 1537C2140.9 1531.8 2148.3 1522.5 2153.3 1516.3C2164.1 1503.2 2162.6 1503 2172 1518.5C2182.2 1535.3 2187 1550.3 2187 1565.5C2187 1579.7 2182.8 1590 2172.9 1600C2162.9 1610.2 2147.3 1617 2137.1 1615.5C2130.2 1614.6 2122.3 1610.4 2119.5 1606.2C2114.8 1599.3 2116.8 1586.3 2123.4 1580.1L2125.9 1577.8L2128.8 1579.8C2131.8 1582 2139.9 1584.3 2142.2 1583.6C2142.9 1583.4 2144.7 1582.9 2146.2 1582.6C2150.8 1581.6 2155 1577.3 2155 1573.6C2155 1569.7 2153 1567.6 2147.1 1565.5C2138 1562.3 2125.3 1564.8 2114.4 1571.8C2103.3 1579 2099.3 1586.5 2100.2 1598.3C2100.9 1606 2103.5 1611.3 2109.3 1616.7C2117.9 1624.6 2128.3 1628 2144.5 1628C2168.9 1628 2208 1614.2 2235 1596.1C2256.9 1581.4 2283.3 1558.7 2295.9 1543.6C2304.6 1533.2 2305.3 1531.9 2303.4 1529.2C2301.6 1526.6 2296 1524.7 2292.6 1525.6C2291.1 1525.9 2287.7 1529 2284.4 1533.1C2281.3 1536.9 2275 1543.6 2270.3 1548C2260.7 1557.1 2241.1 1573.4 2240.5 1572.8C2240.3 1572.6 2240.6 1569.4 2241.3 1565.7C2245 1544 2229.5 1516.6 2199.2 1491.1L2188.1 1481.8L2193.2 1475.6C2203.7 1463.1 2205.4 1454.5 2198.6 1448.3C2194.2 1444.2 2189.6 1443 2178.4 1443C2162.2 1443 2150.9 1448.2 2144.6 1458.3C2139 1467.4 2140.5 1479.4 2148.5 1488.7L2152 1492.8L2145 1501.7C2141.2 1506.5 2135.3 1513.9 2132 1518C2128.6 1522.1 2125 1527.3 2123.9 1529.5C2117.6 1542.5 2075.3 1585.3 2052.9 1601.3C2045.6 1606.4 2036.6 1611 2033.5 1611C2032.4 1611 2030.4 1610.3 2029.1 1609.4C2025.7 1607 2026.7 1601.8 2032.9 1589.5C2039.2 1576.8 2049.9 1560.9 2076.5 1524.5C2114.3 1472.7 2125.9 1456.1 2137.6 1436.9C2148.9 1418.3 2156 1401.4 2156 1393.4C2156 1384.6 2150 1377.3 2139.8 1373.7C2132.5 1371.1 2114.5 1370.4 2107 1372.5ZM1258.2 1485C1266.2 1494.9 1245.3 1520.7 1217 1535.8C1212.9 1538.1 1206.1 1541.2 1202 1542.8C1192.5 1546.6 1176 1551.1 1176 1550C1176 1548.4 1192.3 1526.4 1200.5 1516.9C1215 1500.3 1231.6 1487.2 1243.3 1483.4C1249.2 1481.5 1256 1482.2 1258.2 1485Z" fill="white"/>
<path d="M870 1392.5C803.3 1400.9 735.1 1430.9 697.9 1468.1C676 1489.9 664.8 1514.8 668 1534.3C670.4 1548.1 679.4 1561.3 692.8 1570.4C700.7 1575.8 707.2 1577.4 717.5 1576.4C730.3 1575.2 746 1568.7 746 1564.7C746 1564 744.2 1561.6 741.9 1559.5C731.6 1549.4 727 1538.3 727 1523.6C727 1511.8 729.5 1502 735.3 1490.4C756.1 1449.2 803.8 1417.6 859.6 1407.9C890.2 1402.6 930 1406.7 956 1417.7C995.5 1434.5 1016 1460.2 1016 1493C1016 1532.6 984.2 1569.1 931.3 1590.4C910.7 1598.7 892.5 1603.1 869.2 1605.4C855.1 1606.8 852 1608.1 852 1612.5C852 1617 856 1618.7 872.9 1621.4C880.4 1622.6 884.4 1624 893.4 1628.3C912 1637.5 927.4 1649 971.8 1686.8C1022.3 1729.8 1041 1743.5 1067.5 1756.7C1104.7 1775.3 1135.4 1773.9 1156.1 1752.8C1163.5 1745.3 1168.6 1732.7 1165.1 1730.5C1164.5 1730.2 1159 1729.7 1152.8 1729.4C1125.6 1728.2 1102.1 1721.5 1072.9 1706.9C1055.4 1698.2 1048.4 1693.9 1008.5 1667.4C971.6 1642.9 954.3 1632.2 941 1625.8C936 1623.4 932 1621.3 932 1621C932 1620.7 937.5 1619.5 944.3 1618.3C987.4 1610.6 1031.3 1589.3 1060.2 1562.1C1098.1 1526.6 1103.7 1488.1 1075.9 1453.5C1052.3 1424.2 1006.6 1402.2 952.5 1394C933.9 1391.1 887.4 1390.3 870 1392.5Z" fill="white"/>
<path d="M846.5 1443C840.5 1444.1 833 1446.9 833 1448C833 1448.5 833.5 1449.2 834.1 1449.6C836.2 1450.9 834.3 1460.3 829.5 1471.5C823.7 1485.2 817 1498 791.5 1544C753.9 1611.9 741.7 1636.3 732.5 1661.6C725 1682.3 725.2 1689.9 733.8 1698.3C739.8 1704.1 747.3 1706.5 760.5 1706.5C777.7 1706.5 784 1703.2 784 1694.2C784 1681.9 798.8 1653.4 841.7 1582.9C864.1 1546.3 872.9 1530.6 882.9 1509.8C903 1468.3 903.9 1451.8 886.2 1444.9C881.4 1443 878.2 1442.6 866 1442.4C858 1442.3 849.3 1442.5 846.5 1443Z" fill="white"/>
<path d="M1587.4 1653.6C1585.1 1654.4 1581.4 1656.6 1579.2 1658.5C1575.1 1662 1570 1670.8 1570 1674.3C1570 1677.6 1573.1 1675.7 1574.5 1671.5C1579 1658.3 1600.4 1656.3 1607.5 1668.5C1609.5 1671.9 1610 1674 1610 1679.7C1610 1685.8 1609.5 1687.7 1606.4 1694.1C1603.2 1700.5 1600.4 1703.8 1584.9 1719.2C1575 1729 1567 1737.4 1567 1738C1567 1738.7 1577 1739 1596.5 1739H1626V1736V1733H1600.9H1575.9L1586.2 1724.9C1600.8 1713.3 1614.7 1698.9 1618.9 1691.1C1622.8 1683.7 1624.1 1673.9 1622 1667.6C1620.4 1662.5 1613 1655.5 1607.3 1653.6C1601.6 1651.6 1592.9 1651.7 1587.4 1653.6Z" fill="white"/>
<path d="M1668.8 1653.8C1654.9 1658.8 1646.5 1670.7 1644 1688.7C1641.6 1706.3 1647.8 1725.3 1658.7 1733.6C1678.8 1748.9 1705 1738.8 1712.5 1712.8C1715.2 1703.6 1715.1 1688.6 1712.3 1679.5C1705.7 1658.4 1686.8 1647.2 1668.8 1653.8ZM1686.8 1658.1C1694.5 1661.9 1698.4 1670.2 1700.2 1686.6C1701.5 1698.3 1700.2 1713.4 1697.3 1721.5C1696.3 1724.3 1693.6 1728.5 1691 1731.1C1687.3 1735 1685.7 1735.9 1681.8 1736.5C1671.5 1738 1662.7 1729.9 1659.5 1715.9C1657.4 1706.5 1657.3 1686.6 1659.4 1677.6C1663.6 1659.6 1674.2 1652 1686.8 1658.1Z" fill="white"/>
<path d="M1749.5 1654.4C1743.7 1657.1 1738.7 1661.7 1736.1 1666.9C1733.4 1672.1 1733.1 1675.4 1735.3 1675.8C1736.3 1676 1737 1675.5 1737 1674.5C1737 1670.9 1740.9 1665.4 1745.1 1663.1C1750.4 1660.1 1759.7 1659.7 1764.7 1662.3C1774.3 1667.3 1776.6 1680.4 1770.1 1693.5C1766.3 1701.2 1754.2 1714.9 1740.6 1726.9C1734.8 1732.1 1730 1737 1730 1737.7C1730 1738.7 1735.8 1739 1759.5 1739H1789V1736V1733L1764.4 1732.8L1739.9 1732.5L1751 1723.5C1766.5 1711.1 1779 1697.8 1783.2 1689.3C1789.4 1676.7 1787.2 1664.9 1777.2 1657.3C1769.5 1651.4 1758.3 1650.2 1749.5 1654.4Z" fill="white"/>
<path d="M1830.6 1654.5C1815.8 1660.6 1807.1 1676.1 1807 1696.5C1807 1710.4 1810.9 1721.8 1818.6 1730C1825.5 1737.4 1832.5 1740.5 1842.5 1740.5C1849.2 1740.5 1851.4 1740.1 1856.2 1737.7C1870.7 1730.6 1878.8 1713.7 1877.7 1693C1876.8 1678.1 1872.6 1668.2 1863.5 1660.2C1854.2 1652 1841.8 1649.9 1830.6 1654.5ZM1852.6 1659.5C1860.6 1665.6 1864.7 1680.8 1863.7 1701.5C1863.1 1714.9 1861.5 1721.2 1857.1 1728.2C1853.4 1734 1849.1 1736.4 1842.4 1736.4C1828.5 1736.5 1821 1722 1821 1695.5C1821 1680 1824.9 1666 1830.7 1660.8C1836.7 1655.3 1846.4 1654.8 1852.6 1659.5Z" fill="white"/>
<path d="M1268.2 1659.6C1266 1661.1 1265.2 1665.3 1266.8 1667.6C1269.1 1671.1 1275.6 1672 1278.8 1669.2C1282.2 1666.3 1282.5 1663.4 1279.6 1660.5C1276.7 1657.6 1271.6 1657.2 1268.2 1659.6Z" fill="white"/>
<path d="M1214.3 1687.5C1205.6 1691.9 1202.7 1699.7 1207 1706.8C1209 1710.1 1216.8 1714.4 1227.3 1718.1C1229.4 1718.8 1232.6 1720.7 1234.5 1722.3C1243.4 1729.6 1234.6 1740.4 1222.3 1737.1C1216.2 1735.5 1211.9 1732 1209.2 1726.7C1205.3 1719.2 1204 1720.4 1204 1731.5C1204 1739.4 1204.3 1741 1205.5 1741C1206.4 1741 1207.3 1740.4 1207.6 1739.6C1208.6 1737.1 1211 1736.9 1217.7 1739C1225.1 1741.3 1228.8 1741.5 1234.4 1739.9C1239.6 1738.5 1245.9 1732.4 1246.9 1728C1248.8 1719.1 1243.8 1712.8 1230.4 1707.3C1226.1 1705.5 1221 1703.1 1219.2 1702C1211.9 1697.5 1213.5 1690.3 1222.3 1688.6C1226.2 1687.8 1227.5 1688 1231.7 1690.1C1235.4 1692 1237 1693.5 1238.9 1697.2C1242.5 1704.7 1244 1703.6 1244 1693.5C1244 1685.7 1243.8 1685 1242 1685C1240.9 1685 1240 1685.5 1240 1686.1C1240 1686.8 1238.4 1687 1235.3 1686.6C1220.1 1684.7 1219.7 1684.7 1214.3 1687.5Z" fill="white"/>
<path d="M1262.6 1685.9C1258.8 1686.2 1255.5 1687 1255.3 1687.6C1254.9 1688.9 1258.1 1690 1262.1 1690C1263.5 1690 1265.1 1690.5 1265.8 1691.2C1267.5 1692.9 1267.5 1733.6 1265.8 1734.7C1265.1 1735.1 1262.5 1735.7 1260.1 1736C1257.6 1736.3 1255.5 1737.1 1255.2 1737.7C1254.9 1738.7 1258.8 1739 1272.4 1739C1287.4 1739 1290 1738.8 1290 1737.5C1290 1736.5 1289 1736 1286.6 1736C1280.1 1736 1280 1735.6 1280 1708.9V1685L1274.8 1685.2C1271.9 1685.3 1266.4 1685.6 1262.6 1685.9Z" fill="white"/>
<path d="M1302.1 1685.9C1294.5 1686.6 1292.8 1688.6 1299 1689.6C1306 1690.7 1306 1690.8 1306 1712.3C1306 1734.2 1305.6 1735.7 1299.3 1736.2C1297.3 1736.4 1295.5 1737.1 1295.2 1737.7C1294.9 1738.7 1298.7 1739 1311.9 1739C1326.4 1739 1329 1738.8 1329 1737.5C1329 1736.5 1328 1736 1325.6 1736C1319.4 1736 1319 1734.8 1319 1716.5V1700.2L1322.7 1697C1331.6 1689.2 1343.4 1688.9 1348.4 1696.4C1349.7 1698.5 1350 1701.8 1350 1715.7C1350 1724.9 1349.6 1733.1 1349.1 1733.9C1348.6 1734.7 1346.3 1735.6 1343.9 1735.9C1341.6 1736.2 1339.5 1737.1 1339.2 1737.7C1338.9 1738.7 1342.7 1739 1355.9 1739C1370.4 1739 1373 1738.8 1373 1737.5C1373 1736.5 1372 1736 1369.6 1736C1363.5 1736 1363 1734.7 1363 1717.7C1363 1699.8 1362.1 1695.8 1357 1690.9C1348.4 1682.6 1334.2 1683.3 1321.3 1692.6C1319 1694.2 1319 1694.2 1319 1689.6V1685L1313.8 1685.2C1310.9 1685.3 1305.6 1685.6 1302.1 1685.9Z" fill="white"/>
<path d="M1404.3 1686.5C1390.1 1690.9 1382.1 1700.9 1382 1714.1C1382 1726.5 1389.3 1735.6 1402.3 1739.5C1414.1 1743 1429.1 1740.2 1437.4 1732.9C1439.9 1730.7 1442 1728.2 1442 1727.4C1442 1725.4 1441.4 1725.6 1437.1 1729C1432 1733.2 1424.1 1736 1417.7 1736C1407 1736 1397.5 1727.3 1395 1715.4C1391.5 1698.6 1404.3 1685.3 1420.5 1688.9C1426.8 1690.3 1433.3 1695.5 1435.1 1700.5C1435.9 1702.7 1437.1 1704 1438.2 1704C1439.8 1704 1440 1703 1440 1694.5C1440 1686.3 1439.8 1685 1438.3 1685C1437.4 1685 1435.9 1685.7 1434.9 1686.6C1433.3 1688.1 1432.5 1688.1 1426.1 1686.6C1417.8 1684.7 1410.1 1684.6 1404.3 1686.5Z" fill="white"/>
<path d="M1471.6 1686.7C1452.7 1692.5 1444.4 1713.8 1455.4 1728.3C1466.8 1743.2 1495.7 1745.4 1508.4 1732.1C1509.9 1730.5 1511 1728.4 1510.8 1727.5C1510.6 1726.1 1509.9 1726.3 1506.5 1729C1499.7 1734.4 1495.7 1736 1488.7 1736C1474.6 1736 1465.5 1727 1463.7 1711.2L1463.2 1707H1486.6C1504.7 1707 1510 1706.7 1510 1705.7C1510 1701.7 1507.5 1696.8 1503.7 1693.2C1495.5 1685.7 1483 1683.2 1471.6 1686.7ZM1489.7 1690.7C1493.8 1692.6 1497 1697.3 1497 1701.2V1704H1480.5C1464.1 1704 1464 1704 1464 1701.7C1464 1698.5 1467.5 1693.3 1471.2 1691C1475.4 1688.5 1484.7 1688.3 1489.7 1690.7Z" fill="white"/>
</svg>
